<?xml version="1.0" encoding="UTF-8" standalone="no"?>
<!-- Created with Inkscape (http://www.inkscape.org/) -->

<svg
   width="95.408592mm"
   height="44.076591mm"
   viewBox="0 0 95.408593 44.076592"
   version="1.1"
   id="svg5"
   inkscape:version="1.1 (c68e22c387, 2021-05-23)"
   sodipodi:docname="paoloros.svg"
   xmlns:inkscape="http://www.inkscape.org/namespaces/inkscape"
   xmlns:sodipodi="http://sodipodi.sourceforge.net/DTD/sodipodi-0.dtd"
   xmlns="http://www.w3.org/2000/svg"
   xmlns:svg="http://www.w3.org/2000/svg">
  <sodipodi:namedview
     id="namedview7"
     pagecolor="#ffffff"
     bordercolor="#666666"
     borderopacity="1.0"
     inkscape:pageshadow="2"
     inkscape:pageopacity="0.0"
     inkscape:pagecheckerboard="0"
     inkscape:document-units="mm"
     showgrid="false"
     fit-margin-top="0"
     fit-margin-left="0"
     fit-margin-right="0"
     fit-margin-bottom="0"
     inkscape:zoom="0.9814281"
     inkscape:cx="110.55318"
     inkscape:cy="-18.850082"
     inkscape:window-width="1920"
     inkscape:window-height="1017"
     inkscape:window-x="-8"
     inkscape:window-y="-8"
     inkscape:window-maximized="1"
     inkscape:current-layer="layer2" />
  <defs
     id="defs2" />
  <g
     inkscape:label="Layer 1"
     inkscape:groupmode="layer"
     id="layer1"
     transform="translate(-69.756865,-45.853408)" />
  <g
     inkscape:groupmode="layer"
     id="layer2"
     inkscape:label="Layer 2"
     transform="translate(-69.756865,-45.853408)">
    <g
       id="g863">
      <g
         aria-label="Ros"
         id="text1442"
         style="font-size:61.9128px;line-height:1.25;font-family:Vanchrome;-inkscape-font-specification:Vanchrome;stroke-width:1.54782">
        <path
           d="M 106.12459,89.20446 H 94.908939 L 88.167458,78.049273 Q 87.411686,76.779577 86.716377,75.781959 86.021067,74.78434 85.295526,74.08903 84.600216,73.36349 83.814214,73.00072 83.058443,72.607718 82.151517,72.607718 H 79.521432 V 89.20446 H 69.756865 V 45.853408 h 15.478199 q 15.780506,0 15.780506,11.790035 0,2.267314 -0.69531,4.202089 -0.695306,1.904545 -1.965003,3.446318 -1.269696,1.541774 -3.083547,2.660316 -1.783621,1.118542 -3.990474,1.75339 v 0.120923 q 0.967388,0.302309 1.874314,0.997619 0.906925,0.665079 1.753389,1.572004 0.846465,0.906926 1.602236,1.965006 0.786002,1.027849 1.42085,2.025468 z M 79.521432,53.169276 v 12.062113 h 4.23232 q 3.14401,0 5.048554,-1.813852 1.934775,-1.844082 1.934775,-4.56486 0,-5.683401 -6.801943,-5.683401 z"
           id="path828" />
        <path
           d="m 123.17479,89.930001 q -6.8624,0 -10.9738,-4.323013 -4.08116,-4.353244 -4.08116,-11.517958 0,-7.799561 4.26255,-12.183036 4.26255,-4.383474 11.51795,-4.383474 6.92287,0 10.79242,4.262551 3.89978,4.262551 3.89978,11.820266 0,7.40656 -4.20209,11.880727 -4.17186,4.443937 -11.21565,4.443937 z m 0.36277,-28.235623 q -4.77647,0 -7.55771,3.264933 -2.78124,3.234702 -2.78124,8.948334 0,5.502017 2.81147,8.676257 2.81147,3.17424 7.52748,3.17424 4.80671,0 7.37633,-3.113778 2.59986,-3.113779 2.59986,-8.857642 0,-5.804325 -2.59986,-8.948334 -2.56962,-3.14401 -7.37633,-3.14401 z"
           style="font-weight:normal;-inkscape-font-specification:Gadugi"
           id="path830" />
        <path
           d="m 144.63871,88.085918 v -5.320631 q 4.05093,2.992855 8.9181,2.992855 6.52987,0 6.52987,-4.353244 0,-1.239465 -0.57439,-2.085929 -0.54416,-0.876695 -1.51154,-1.541774 -0.93716,-0.665079 -2.23709,-1.179003 -1.26969,-0.544156 -2.75101,-1.118542 -2.05569,-0.816233 -3.6277,-1.632466 -1.54177,-0.846464 -2.59985,-1.874314 -1.02785,-1.05808 -1.57201,-2.388238 -0.51392,-1.330157 -0.51392,-3.113778 0,-2.176622 0.99762,-3.839319 0.99762,-1.692928 2.66031,-2.81147 1.6627,-1.148773 3.77886,-1.723159 2.14639,-0.574386 4.41371,-0.574386 4.0207,0 7.19494,1.390619 v 5.018323 q -3.41609,-2.237084 -7.86002,-2.237084 -1.39062,0 -2.50916,0.33254 -1.11855,0.302308 -1.93478,0.876695 -0.786,0.574386 -1.23946,1.390619 -0.42324,0.786002 -0.42324,1.75339 0,1.209234 0.42324,2.025467 0.45346,0.816234 1.29992,1.451082 0.84647,0.634848 2.0557,1.148772 1.20923,0.513925 2.75101,1.118542 2.0557,0.786003 3.68816,1.632467 1.63247,0.816233 2.78124,1.874313 1.14878,1.027849 1.75339,2.388238 0.63485,1.360388 0.63485,3.234702 0,2.297545 -1.02785,3.990473 -0.99762,1.692928 -2.69055,2.81147 -1.69292,1.118542 -3.89978,1.662697 -2.20685,0.544156 -4.62532,0.544156 -4.77647,0 -8.28325,-1.844083 z"
           style="font-weight:normal;-inkscape-font-specification:Gadugi"
           id="path832" />
      </g>
      <g
         aria-label="P"
         transform="scale(1.0212382,0.97920346)"
         id="text22239"
         style="font-size:52.4195px;line-height:1.25;font-family:Vanchrome;-inkscape-font-specification:Vanchrome;fill:#ffffff;stroke-width:1.31048">
        <path
           d="M 76.602988,71.730052 V 89.926033 H 69.712142 V 48.358499 h 12.67542 c 3.924637,0 6.961964,1.495969 9.111983,3.407096 2.167082,1.911127 3.250623,4.607182 3.250623,8.088165 0,3.480982 -1.202987,6.33061 -3.60896,8.548883 -2.388909,2.218273 -5.622469,3.327409 -9.700678,3.327409 z m 0,-18.940639 v 15.05013 h 4.504801 c 2.969073,0 5.230005,-0.674014 6.782796,-2.022041 1.569855,-1.365091 2.354782,-3.284751 2.354782,-5.758978 0,-4.846074 -2.866691,-7.269111 -8.600074,-7.269111 z"
           style="font-family:Gadugi;-inkscape-font-specification:Gadugi;fill:#ffffff"
           id="path25534"
           sodipodi:nodetypes="ccccscscscccscssc" />
      </g>
    </g>
  </g>
</svg>
